<svg id="Layer_1" data-name="Layer 1" xmlns="http://www.w3.org/2000/svg" viewBox="0 0 58.89 58.89"><defs><style>.cls-1{fill:#004fff;}</style></defs><title>icon-temp</title><path class="cls-1" d="M421.16,315.28a2.63,2.63,0,0,0,1.27,3.06l-1.94,6.6a11.48,11.48,0,0,0-5.71.07l-.23-.81a2.63,2.63,0,0,0-1.39-5l-.94-3.36a.54.54,0,0,0-.67-.38.55.55,0,0,0-.38.67l.95,3.37a2.62,2.62,0,0,0,1.38,4.95l.24.85a11.51,11.51,0,0,0-6.84,7l-6.58-1.94a2.61,2.61,0,1,0-.3,1.05l6.58,1.93a11.44,11.44,0,0,0,1.2,8.46l-4.46,2.44a2.62,2.62,0,1,0,.52,1l4.53-2.47a11.45,11.45,0,0,0,13.86,3.94l2.16,3.74a2.63,2.63,0,0,0,2.58,4.45l0,.05a.53.53,0,0,0,.74.19.54.54,0,0,0,.2-.74l0,0a2.63,2.63,0,0,0-2.58-4.46l-2.12-3.66a11.49,11.49,0,0,0,5.57-6.87,11.35,11.35,0,0,0,.15-5.89h0l1.23-.44a2.63,2.63,0,0,0,4.85-1.72l3.3-1.18a.5.5,0,0,0,.33-.35.56.56,0,0,0,0-.34.55.55,0,0,0-.7-.33l-3.29,1.17a2.63,2.63,0,0,0-4.85,1.73l-1.17.41a11.6,11.6,0,0,0-3.69-5.29l1.61-2.78a2.63,2.63,0,0,0,2.57-4.45l.53-.91a.61.61,0,0,0,.05-.12.54.54,0,0,0-1-.42l-.53.9a2.63,2.63,0,0,0-2.57,4.46l-1.55,2.68a11.81,11.81,0,0,0-2.55-1.24l2-6.61a2.63,2.63,0,1,0-2.32-3.36Zm6.6,23.77a10.44,10.44,0,1,1-4-11.46.48.48,0,0,0,.19.21.49.49,0,0,0,.17.06A10.43,10.43,0,0,1,427.76,339.05Z" transform="translate(-388.32 -306.66)"/><path class="cls-1" d="M443.72,343.76a27.06,27.06,0,1,1-18.31-33.61A27.1,27.1,0,0,1,443.72,343.76Zm-50.87-15a26,26,0,1,0,32.25-17.58A26,26,0,0,0,392.85,328.77Z" transform="translate(-388.32 -306.66)"/><path class="cls-1" d="M446,344.43a29.44,29.44,0,1,1-19.93-36.56A29.48,29.48,0,0,1,446,344.43Zm-55.45-16.34a28.36,28.36,0,1,0,35.22-19.18A28.39,28.39,0,0,0,390.56,328.09Z" transform="translate(-388.32 -306.66)"/><path class="cls-1" d="M426.87,336.67a9.51,9.51,0,0,1-.35,2,9.13,9.13,0,1,1-6.18-11.33h0A9.12,9.12,0,0,1,426.87,336.67Zm-16.22-1a7.14,7.14,0,0,0,5.1,7.27,7.11,7.11,0,0,0,8.85-4.82,7.12,7.12,0,1,0-13.67-4A6.65,6.65,0,0,0,410.65,335.67Z" transform="translate(-388.32 -306.66)"/></svg>