<svg id="Layer_1" data-name="Layer 1" xmlns="http://www.w3.org/2000/svg" viewBox="0 0 58.88 58.88"><defs><style>.cls-1{fill:#004fff;}</style></defs><title>bw-icons-cinci</title><path class="cls-1" d="M46.29,46.46a.67.67,0,0,1-.47-.2.66.66,0,0,1,0-.95,22.48,22.48,0,0,0,0-31.73.67.67,0,0,1,1-.95,23.81,23.81,0,0,1,0,33.63A.69.69,0,0,1,46.29,46.46Z"/><path class="cls-1" d="M49.78,50.35a.68.68,0,0,1-.48-1.15,28,28,0,0,0,0-39.51.68.68,0,0,1,0-.95.66.66,0,0,1,1,0,29.31,29.31,0,0,1,0,41.41A.67.67,0,0,1,49.78,50.35Z"/><path class="cls-1" d="M12.59,46.46a.67.67,0,0,1-.47-.2,23.79,23.79,0,0,1,0-33.63.66.66,0,0,1,1,0,.68.68,0,0,1,0,.95,22.46,22.46,0,0,0,0,31.73.68.68,0,0,1-.48,1.15Z"/><path class="cls-1" d="M9.11,50.35a.69.69,0,0,1-.48-.2,29.31,29.31,0,0,1,0-41.41.67.67,0,0,1,.95.95,28,28,0,0,0,0,39.51.66.66,0,0,1,0,.95A.67.67,0,0,1,9.11,50.35Z"/><path class="cls-1" d="M29.44,47.12A17.68,17.68,0,1,1,47.12,29.44,17.7,17.7,0,0,1,29.44,47.12Zm0-34.4A16.72,16.72,0,1,0,46.16,29.44,16.74,16.74,0,0,0,29.44,12.72Z"/><path class="cls-1" d="M29.44,44.15A14.71,14.71,0,1,1,44.15,29.44,14.72,14.72,0,0,1,29.44,44.15Zm0-28.61a13.91,13.91,0,1,0,13.91,13.9A13.91,13.91,0,0,0,29.44,15.54Z"/><polygon class="cls-1" points="31.47 33.54 27.41 33.54 26.84 20.88 32.05 20.88 31.47 33.54"/><rect class="cls-1" x="27.41" y="34.59" width="4.08" height="4.08"/></svg>