<svg id="Layer_1" data-name="Layer 1" xmlns="http://www.w3.org/2000/svg" viewBox="0 0 58.88 58.88"><defs><style>.cls-1{fill:#004fff;}</style></defs><title>bw-icons-separated</title><path class="cls-1" d="M29.44,58.88A29.44,29.44,0,1,1,58.88,29.44,29.47,29.47,0,0,1,29.44,58.88Zm0-57.28A27.85,27.85,0,1,0,57.29,29.44,27.87,27.87,0,0,0,29.44,1.6Z"/><g id="PfnjPp"><path class="cls-1" d="M27.83,16.86h0l.68.34a10.5,10.5,0,0,1,3.57,3.25,15.76,15.76,0,0,1,2.27,4.86c0,.11.07.22.13.39,1.13-1.36,1-2.8.49-4.34.17.15.29.25.4.36a16.79,16.79,0,0,1,3.53,5.05,11.55,11.55,0,0,1,1.12,4.64,8.7,8.7,0,0,1-1.85,5.48,15.22,15.22,0,0,1-4.44,3.78,2.53,2.53,0,0,0-.27.18h0c.17-.4.35-.79.5-1.2a10.52,10.52,0,0,0,.4-5.45A11.37,11.37,0,0,0,30.15,27l-.26-.18A9.08,9.08,0,0,1,28,33.36a6.11,6.11,0,0,0,0-1.76,4.13,4.13,0,0,0-.64-1.66c-.16.52-.31,1-.48,1.49a13.62,13.62,0,0,1-1.59,2.93,5.63,5.63,0,0,0-.69,5c.16.49.36,1,.55,1.44h0l-.19-.13a18,18,0,0,1-3.2-2.28,7.69,7.69,0,0,1-1.92-2.6,7.08,7.08,0,0,1-.29-4.29,13.65,13.65,0,0,1,1.12-3c.47-1,.94-2,1.35-3A12.36,12.36,0,0,0,22.3,24a8,8,0,0,1,.93,3.84l.07,0,.22-.28a24.53,24.53,0,0,0,3.24-5.07A10.6,10.6,0,0,0,27.87,18C27.87,17.59,27.84,17.23,27.83,16.86Z"/></g><path class="cls-1" d="M29.44,58.88A29.44,29.44,0,1,1,58.88,29.44,29.47,29.47,0,0,1,29.44,58.88Zm0-57.28A27.85,27.85,0,1,0,57.29,29.44,27.87,27.87,0,0,0,29.44,1.6Z"/><path class="cls-1" d="M29.44,54.11A24.67,24.67,0,1,1,54.11,29.44,24.7,24.7,0,0,1,29.44,54.11Zm0-48A23.33,23.33,0,1,0,52.77,29.44,23.36,23.36,0,0,0,29.44,6.11Z"/></svg>