<svg id="Layer_1" data-name="Layer 1" xmlns="http://www.w3.org/2000/svg" viewBox="0 0 45.09 48.66"><defs><style>.cls-1{fill:#004fff;}</style></defs><title>bw-icons-separated</title><path class="cls-1" d="M22.53,29.26A6.46,6.46,0,1,1,29,22.8,6.47,6.47,0,0,1,22.53,29.26Zm0-11.32a4.86,4.86,0,1,0,4.86,4.86A4.87,4.87,0,0,0,22.53,17.94Z"/><path class="cls-1" d="M17.19,21.74a.86.86,0,0,1-.27,0L9.86,19.23a.8.8,0,0,1-.49-1,.81.81,0,0,1,1-.49l7.06,2.46a.8.8,0,0,1-.26,1.56Z"/><path class="cls-1" d="M16.32,35.26a.75.75,0,0,1-.38-.1.79.79,0,0,1-.33-1.08l3.55-6.66a.8.8,0,0,1,1.41.75L17,34.83A.8.8,0,0,1,16.32,35.26Z"/><path class="cls-1" d="M32.27,33a.78.78,0,0,1-.55-.23L26,27.28a.79.79,0,0,1,0-1.13.81.81,0,0,1,1.13,0l5.69,5.48A.8.8,0,0,1,32.27,33Z"/><path class="cls-1" d="M27.74,21.39a.79.79,0,0,1-.31-1.53L34,17.07a.8.8,0,0,1,.62,1.48l-6.57,2.78A.85.85,0,0,1,27.74,21.39Z"/><path class="cls-1" d="M22.53,17.94a.8.8,0,0,1-.8-.8V10.43a.8.8,0,0,1,1.6,0v6.71A.8.8,0,0,1,22.53,17.94Z"/><path class="cls-1" d="M19.26,19a.79.79,0,0,1-.65-.34L12,9.37a.8.8,0,0,1,1.31-.93l6.56,9.28A.8.8,0,0,1,19.26,19Z"/><path class="cls-1" d="M25.51,18.79a.79.79,0,0,1-.42-.12.8.8,0,0,1-.26-1.1l6.5-10.49a.79.79,0,0,1,1.1-.25.8.8,0,0,1,.26,1.1l-6.5,10.48A.78.78,0,0,1,25.51,18.79Z"/><path class="cls-1" d="M37,26.35l-.15,0-8.95-1.69a.81.81,0,0,1-.64-.94.8.8,0,0,1,.93-.63l9,1.69A.8.8,0,0,1,37,26.35Z"/><path class="cls-1" d="M25.4,42.06a.81.81,0,0,1-.79-.68l-2-12.87a.8.8,0,0,1,1.58-.25l2,12.88a.81.81,0,0,1-.67.91Z"/><path class="cls-1" d="M7.77,30.11a.8.8,0,0,1-.32-1.53L17,24.35a.8.8,0,0,1,.65,1.46L8.09,30A.71.71,0,0,1,7.77,30.11Z"/><circle class="cls-1" cx="22.53" cy="6.37" r="4.06"/><circle class="cls-1" cx="38.05" cy="16.23" r="4.06"/><circle class="cls-1" cx="35.19" cy="35" r="4.06"/><circle class="cls-1" cx="14.41" cy="38.04" r="4.06"/><circle class="cls-1" cx="6.29" cy="17.14" r="4.06"/><circle class="cls-1" cx="4.06" cy="30.94" r="4.06"/><circle class="cls-1" cx="10.35" cy="5.59" r="4.06"/><circle class="cls-1" cx="25.93" cy="44.6" r="4.06"/><circle class="cls-1" cx="41.03" cy="26.3" r="4.06"/><circle class="cls-1" cx="34.15" cy="4.06" r="4.06"/><path class="cls-1" d="M22.53,30.06a7.26,7.26,0,1,1,7.25-7.26A7.27,7.27,0,0,1,22.53,30.06Zm0-11.32a4.06,4.06,0,1,0,4.06,4.06A4.06,4.06,0,0,0,22.53,18.74Z"/></svg>