<svg id="Layer_1" data-name="Layer 1" xmlns="http://www.w3.org/2000/svg" viewBox="0 0 46.68 43.83"><defs><style>.cls-1{fill:#004fff;}</style></defs><title>bw-icons-separated</title><path class="cls-1" d="M37.25,21.19h0c-.76,0-1.53,0-2.3,0h0a1.09,1.09,0,0,1-.78-.3,1.08,1.08,0,0,1-.29-.79c0-.26,0-.53,0-.79,0-.1,0-.2-.24-.28-.59-.22-1.17-.46-1.73-.72-.23-.11-.3-.06-.39,0l-.08.07-.46.46a1.05,1.05,0,0,1-.76.37,1.07,1.07,0,0,1-.77-.34q-.83-.84-1.65-1.65a1.07,1.07,0,0,1-.34-.77,1.05,1.05,0,0,1,.35-.75c.2-.18.39-.38.58-.58,0,0,.12-.12,0-.33-.26-.59-.51-1.18-.73-1.78-.08-.22-.19-.22-.27-.22h-.75a1.09,1.09,0,0,1-.84-.3,1.11,1.11,0,0,1-.3-.83c0-.25,0-.51,0-.77v-.68c0-.27,0-.54,0-.8a1,1,0,0,1,.3-.79,1,1,0,0,1,.79-.3h.81c.07,0,.18,0,.26-.23.22-.6.47-1.2.73-1.76.1-.22,0-.29,0-.36s-.38-.39-.58-.57a1,1,0,0,1-.34-.75,1.05,1.05,0,0,1,.33-.75l1.68-1.68a1,1,0,0,1,.74-.32,1,1,0,0,1,.74.33l.58.59c.06.06.14.13.37,0,.57-.26,1.16-.5,1.74-.72.24-.08.24-.18.24-.27q0-.39,0-.78A1.09,1.09,0,0,1,34.14.3a1.11,1.11,0,0,1,.8-.3h2.31A1.05,1.05,0,0,1,38,.3a1,1,0,0,1,.29.79c0,.26,0,.53,0,.79,0,.1,0,.2.24.28.59.22,1.17.46,1.73.72.23.11.3.05.39,0l.08-.07c.15-.15.31-.3.46-.46A1.07,1.07,0,0,1,42,1.94a1.1,1.1,0,0,1,.77.34q.82.84,1.65,1.65a1.07,1.07,0,0,1,.34.76,1.05,1.05,0,0,1-.35.76c-.2.18-.39.38-.58.58,0,0-.12.12,0,.33.26.58.51,1.18.73,1.78.08.22.19.22.27.22h.78a1,1,0,0,1,1.11,1.08q0,1.16,0,2.31a1.08,1.08,0,0,1-.3.79,1.06,1.06,0,0,1-.79.29h-.81c-.08,0-.18,0-.26.23-.22.6-.47,1.19-.73,1.76-.1.22,0,.29,0,.35s.39.39.59.58a1,1,0,0,1,.34.75,1.05,1.05,0,0,1-.33.75l-1.68,1.68a1,1,0,0,1-.74.32,1,1,0,0,1-.74-.33c-.19-.2-.38-.4-.58-.59s-.14-.13-.37,0c-.57.27-1.16.51-1.74.73-.24.08-.24.18-.24.29s0,.51,0,.76a1,1,0,0,1-.29.8A1.07,1.07,0,0,1,37.25,21.19Zm-1.74-1.06Zm1.15,0h0Zm-5-3.53a2.09,2.09,0,0,1,.91.22q.78.36,1.59.66a1.9,1.9,0,0,1,1.34,1.82v.24h1.15V19.3A1.91,1.91,0,0,1,38,17.47c.54-.2,1.08-.42,1.62-.67a1.92,1.92,0,0,1,2.21.34l.18.17.8-.8-.18-.19a1.9,1.9,0,0,1-.33-2.19c.24-.53.47-1.08.68-1.65a1.9,1.9,0,0,1,1.78-1.31H45V10h-.26A1.92,1.92,0,0,1,43,8.72c-.21-.57-.44-1.13-.69-1.67a1.91,1.91,0,0,1,.33-2.17l.19-.2-.8-.8L41.92,4,41.84,4a1.91,1.91,0,0,1-2.25.35c-.51-.24-1.05-.46-1.59-.66A1.9,1.9,0,0,1,36.66,1.9V1.66H35.51v.26a1.9,1.9,0,0,1-1.33,1.8c-.54.2-1.09.42-1.62.67a1.92,1.92,0,0,1-2.21-.34l-.18-.17-.8.8.16.17a1.91,1.91,0,0,1,.35,2.21c-.24.53-.47,1.08-.68,1.65A1.9,1.9,0,0,1,27.42,10h-.27v1.15h.26a1.92,1.92,0,0,1,1.79,1.3c.21.56.44,1.12.69,1.67a1.91,1.91,0,0,1-.33,2.17l-.19.2c.27.26.54.53.8.8l.08-.07.08-.08A1.91,1.91,0,0,1,31.67,16.59Zm10.78,1.18Zm-15.3-6Zm1.78-6.64h0Zm14.32-.88ZM35.51,1.06h0Zm.58,14.54h0a5,5,0,0,1,0-10h0a5,5,0,0,1,0,10Zm0-8.35a3.35,3.35,0,0,0,0,6.69h0a3.35,3.35,0,0,0,0-6.69Z"/><rect class="cls-1" y="0.95" width="21.59" height="2"/><rect class="cls-1" y="9.6" width="21.59" height="2"/><rect class="cls-1" y="18.24" width="21.59" height="2"/><path class="cls-1" d="M0,27.43H3.61v7.14h.08c.36-.63.74-1.2,1.1-1.78l3.66-5.36h4.48L7.59,34.3l5.62,9.27H9L5,36.6,3.61,38.3v5.27H0Z"/><path class="cls-1" d="M18.08,43.57V37L13,27.43h4.17l1.65,3.88c.5,1.17.84,2,1.24,3.09h.05c.36-1,.74-1.94,1.22-3.09l1.63-3.88H27l-5.31,9.41v6.73Z"/><path class="cls-1" d="M39.51,43.11a10.2,10.2,0,0,1-4.14.72c-5.58,0-8.45-3.5-8.45-8.09,0-5.51,3.93-8.57,8.81-8.57a9.39,9.39,0,0,1,4,.72L39,30.78a7.88,7.88,0,0,0-3.06-.6c-2.9,0-5.15,1.75-5.15,5.34,0,3.23,1.92,5.27,5.17,5.27a9.05,9.05,0,0,0,3-.53Z"/></svg>