<svg id="Layer_1" data-name="Layer 1" xmlns="http://www.w3.org/2000/svg" viewBox="0 0 58.88 58.88"><defs><style>.cls-1{fill:#004fff;}</style></defs><title>bw-icons-separated</title><path class="cls-1" d="M29.44,58.88A29.44,29.44,0,1,1,58.88,29.44,29.47,29.47,0,0,1,29.44,58.88Zm0-57.28A27.85,27.85,0,1,0,57.29,29.44,27.87,27.87,0,0,0,29.44,1.6Z"/><path class="cls-1" d="M29.44,54.11A24.67,24.67,0,1,1,54.11,29.44,24.7,24.7,0,0,1,29.44,54.11Zm0-48A23.33,23.33,0,1,0,52.77,29.44,23.36,23.36,0,0,0,29.44,6.11Z"/><path class="cls-1" d="M14.8,35.3V23.58h3.09l2.44,4.3a34.25,34.25,0,0,1,1.91,4h.05a44.4,44.4,0,0,1-.23-4.9V23.58H24.5V35.3H21.72l-2.51-4.52a43,43,0,0,1-2-4.14l-.05,0c.07,1.55.1,3.2.1,5.11V35.3Z"/><path class="cls-1" d="M26.8,23.58H34v2.18h-4.5v2.67h4.21v2.16H29.46V35.3H26.8Z"/><path class="cls-1" d="M38.23,25.81H35.08V23.58h9v2.23h-3.2V35.3H38.23Z"/></svg>