<svg id="Layer_1" data-name="Layer 1" xmlns="http://www.w3.org/2000/svg" viewBox="0 0 58.88 58.88"><defs><style>.cls-1{fill:#004fff;}</style></defs><title>bw-icons-separated</title><path class="cls-1" d="M29.44,58.88A29.44,29.44,0,1,1,58.88,29.44,29.47,29.47,0,0,1,29.44,58.88Zm0-57.28A27.85,27.85,0,1,0,57.29,29.44,27.87,27.87,0,0,0,29.44,1.6Z"/><path class="cls-1" d="M29.44,54.11A24.67,24.67,0,1,1,54.11,29.44,24.7,24.7,0,0,1,29.44,54.11Zm0-48A23.33,23.33,0,1,0,52.77,29.44,23.36,23.36,0,0,0,29.44,6.11Z"/><path class="cls-1" d="M10.77,24.69a18.68,18.68,0,0,1,3-.2,4.68,4.68,0,0,1,3,.78,2.85,2.85,0,0,1,1,2.25,3.11,3.11,0,0,1-.9,2.31,4.49,4.49,0,0,1-3.16,1,5.21,5.21,0,0,1-.75-.05v3.48H10.77ZM13,29.11a3.6,3.6,0,0,0,.74.06c1.17,0,1.89-.59,1.89-1.59s-.62-1.43-1.72-1.43a3.38,3.38,0,0,0-.91.09Z"/><path class="cls-1" d="M19.16,24.69a20.29,20.29,0,0,1,2.94-.2,5,5,0,0,1,3.14.76,2.49,2.49,0,0,1,.9,2,2.59,2.59,0,0,1-1.72,2.4v0a2.48,2.48,0,0,1,1.3,1.82c.3,1.1.61,2.37.79,2.74H24.26A12.11,12.11,0,0,1,23.58,32c-.26-1.22-.68-1.55-1.57-1.56h-.67v3.82H19.16Zm2.18,4.19h.87c1.1,0,1.75-.55,1.75-1.4s-.61-1.34-1.62-1.36a5.57,5.57,0,0,0-1,.07Z"/><path class="cls-1" d="M29.94,24.56v9.73H27.73V24.56Z"/><path class="cls-1" d="M31.85,24.69a19.63,19.63,0,0,1,3-.2,6.26,6.26,0,0,1,4,1,4.31,4.31,0,0,1,1.64,3.67,4.94,4.94,0,0,1-1.61,3.94,7,7,0,0,1-4.49,1.26,19.28,19.28,0,0,1-2.5-.15Zm2.21,7.94a3.5,3.5,0,0,0,.76,0c2,0,3.3-1.09,3.3-3.41a2.8,2.8,0,0,0-3.07-3.09,4.09,4.09,0,0,0-1,.09Z"/><path class="cls-1" d="M47.69,30.18H44.11v2.31h4v1.8H41.9V24.56h6v1.81h-3.8v2h3.58Z"/></svg>