<svg id="Layer_1" data-name="Layer 1" xmlns="http://www.w3.org/2000/svg" viewBox="0 0 43.21 43.21"><defs><style>.cls-1{fill:#004fff;}</style></defs><title>bw-icons-separated</title><g id="RZgjdB"><path class="cls-1" d="M0,16.2V0H16.2c0,.18,0,.36,0,.55V16.19H0Zm2.71-2.72H13.49V2.71H2.71Z"/><path class="cls-1" d="M43.21,16.2H27V.55c0-.19,0-.37,0-.55h16.2ZM29.72,2.7V13.49H40.49V2.7Z"/><path class="cls-1" d="M16.2,43.21H0V27H16.19V42.49C16.19,42.73,16.2,43,16.2,43.21ZM2.71,29.71V40.5H13.48V29.71Z"/><path class="cls-1" d="M21.61,10.81H18.92V.51c0-.17,0-.34,0-.51h2.7V2.7h2.66V8.08H21.61Z"/><path class="cls-1" d="M43.21,24.31H37.83V21.6H32.45V18.92H42.7l.51,0Z"/><path class="cls-1" d="M37.8,35.1h2.69v2.71h2.72v5.4h-5.4c0-1,0-1.9,0-2.86C37.82,38.6,37.81,36.85,37.8,35.1Z"/><path class="cls-1" d="M0,18.9H5.38v2.7H8.11v2.71H0Z"/><path class="cls-1" d="M29.71,43.21h-5.4V37.8H29.7Z"/><path class="cls-1" d="M43.21,32.41H40.53V29.7H37.85V27h5.36Z"/><path class="cls-1" d="M18.9,43.21V37.8h2.71v5.41Z"/><path class="cls-1" d="M32.41,43.21V37.8h2.71v5.41Z"/><path class="cls-1" d="M29.7,24.32h5.37V29.7H27V27h2.7V24.32Z"/><path class="cls-1" d="M21.6,18.91h8.1V24.3h-5.4V21.59h-2.7V18.9Z"/><path class="cls-1" d="M21.6,16.21V10.8h2.67v5.41Z"/><path class="cls-1" d="M37.81,35.11H32.4V32.45h5.41Z"/><path class="cls-1" d="M18.91,18.91V16.2h2.7v2.71H18.91Z"/><path class="cls-1" d="M24.32,32.41V29.7H27v2.71H24.32Z"/><path class="cls-1" d="M27,32.41h2.7v2.7H27V32.4Z"/><path class="cls-1" d="M32.41,37.81h-2.7V35.1h2.7Z"/><path class="cls-1" d="M24.32,29.7H18.91V24.3H24.3v5.41Z"/><path class="cls-1" d="M13.5,21.6h2.69V18.91H18.9v5.41H13.5Z"/><path class="cls-1" d="M24.32,37.8H21.6V35.12H19V32.41H24.3v5.41Z"/><path class="cls-1" d="M8.1,21.61V18.94h5.41v2.67Z"/><path class="cls-1" d="M5.45,5.44h5.3v5.31H5.45Z"/><path class="cls-1" d="M32.44,10.77V5.44h5.33v5.33Z"/><path class="cls-1" d="M5.44,32.44h5.33v5.33H5.44Z"/></g></svg>