<svg id="Layer_1" data-name="Layer 1" xmlns="http://www.w3.org/2000/svg" viewBox="0 0 52.38 46.2"><defs><style>.cls-1{fill:#004fff;}</style></defs><title>bw-icons-separated</title><path class="cls-1" d="M42.08,46.2H10.3A10.24,10.24,0,0,1,.07,36V10.19A10.24,10.24,0,0,1,10.3,0H42.08A10.24,10.24,0,0,1,52.31,10.19V36A10.24,10.24,0,0,1,42.08,46.2ZM10.3,1.56a8.64,8.64,0,0,0-8.63,8.63V36A8.64,8.64,0,0,0,10.3,44.6H42.08A8.64,8.64,0,0,0,50.71,36V10.19a8.64,8.64,0,0,0-8.63-8.63Z"/><rect class="cls-1" x="8.93" y="7.42" width="1.6" height="31.33"/><rect class="cls-1" x="13.04" y="7.42" width="1.6" height="29.33"/><rect class="cls-1" x="17.16" y="7.42" width="1.6" height="27.33"/><rect class="cls-1" x="21.27" y="7.42" width="1.6" height="29.33"/><rect class="cls-1" x="25.39" y="7.42" width="1.6" height="31.33"/><rect class="cls-1" x="29.5" y="7.42" width="1.6" height="29.33"/><rect class="cls-1" x="33.62" y="7.42" width="1.6" height="28.33"/><rect class="cls-1" x="37.73" y="7.42" width="1.6" height="29.33"/><rect class="cls-1" x="41.85" y="7.42" width="1.6" height="31.33"/></svg>