<svg id="Layer_1" data-name="Layer 1" xmlns="http://www.w3.org/2000/svg" viewBox="0 0 52.38 52.16"><defs><style>.cls-1{fill:#004fff;}</style></defs><title>bw-icons-separated</title><path class="cls-1" d="M37.47,44.93H35.6a.84.84,0,0,1-.62-.24.86.86,0,0,1-.24-.63q0-.31,0-.63c0-.08,0-.16-.19-.23-.47-.17-.94-.36-1.39-.57-.18-.09-.23-.05-.31,0l-.06.06c-.13.12-.25.24-.37.37a.85.85,0,0,1-.61.29.89.89,0,0,1-.62-.27l-1.32-1.33a.85.85,0,0,1-.27-.61.83.83,0,0,1,.28-.6l.47-.46s.09-.1,0-.27c-.21-.47-.41-1-.59-1.42-.06-.18-.15-.18-.21-.18s-.4,0-.6,0a.85.85,0,0,1-.67-.24.84.84,0,0,1-.24-.67v-1.8a.87.87,0,0,1,.23-.64.85.85,0,0,1,.64-.23h.64c.07,0,.15,0,.22-.19.18-.48.37-1,.58-1.41.08-.18,0-.23,0-.29s-.3-.31-.45-.45a.83.83,0,0,1-.28-.6.81.81,0,0,1,.26-.6l1.35-1.35a.84.84,0,0,1,.59-.26.8.8,0,0,1,.59.27l.47.47c0,.05.11.1.3,0,.45-.21.92-.41,1.39-.58.19-.07.19-.14.19-.22s0-.42,0-.62A.92.92,0,0,1,35,28.2a.86.86,0,0,1,.63-.24h1.86a.85.85,0,0,1,.62.24.82.82,0,0,1,.23.63v.63c0,.09,0,.16.2.23.47.17.94.37,1.38.58.19.08.24,0,.32,0l.06-.06.37-.37a.81.81,0,0,1,.61-.29.84.84,0,0,1,.62.27q.65.66,1.32,1.32a.87.87,0,0,1,.27.61.88.88,0,0,1-.28.6l-.47.47s-.09.1,0,.27c.22.46.41.94.59,1.42.07.17.15.18.22.18h.62a.81.81,0,0,1,.89.87v1.85a.85.85,0,0,1-.24.62.82.82,0,0,1-.63.24c-.22,0-.43,0-.65,0-.06,0-.14,0-.21.18-.18.48-.37,1-.58,1.41-.08.18,0,.24,0,.28l.47.47a.8.8,0,0,1,.28.6.85.85,0,0,1-.27.6c-.45.44-.9.89-1.34,1.34a.8.8,0,0,1-.6.26.82.82,0,0,1-.58-.26l-.48-.48s-.1-.1-.29,0c-.46.22-.93.41-1.4.58-.19.07-.19.15-.19.23v.62a.81.81,0,0,1-.85.88Zm-1.4-.84Zm.93,0Zm-4-2.83a1.77,1.77,0,0,1,.73.17A12.8,12.8,0,0,0,35,42a1.54,1.54,0,0,1,1.07,1.46v.19H37a1.09,1.09,0,0,1,0-.18A1.5,1.5,0,0,1,38.06,42c.43-.16.87-.34,1.3-.54a1.54,1.54,0,0,1,1.77.27,1.85,1.85,0,0,0,.14.14l.65-.65L41.77,41a1.51,1.51,0,0,1-.27-1.75c.2-.43.38-.87.55-1.32a1.51,1.51,0,0,1,1.43-1.05h.21V36h-.21a1.52,1.52,0,0,1-1.43-1c-.17-.45-.35-.9-.55-1.33a1.51,1.51,0,0,1,.26-1.74c.05-.05.1-.11.16-.16-.22-.21-.44-.43-.65-.65l-.07.07-.05.06a1.56,1.56,0,0,1-1.81.28c-.41-.19-.84-.37-1.27-.53A1.49,1.49,0,0,1,37,29.48a1.21,1.21,0,0,1,0-.19h-.92v.21A1.51,1.51,0,0,1,35,30.94c-.44.16-.87.34-1.3.54a1.53,1.53,0,0,1-1.77-.28.93.93,0,0,1-.14-.14c-.22.22-.43.44-.65.65l.14.14a1.56,1.56,0,0,1,.28,1.77c-.2.42-.38.86-.55,1.32a1.52,1.52,0,0,1-1.43,1h-.21v.92h.2A1.53,1.53,0,0,1,31,38c.17.45.35.9.55,1.34A1.53,1.53,0,0,1,31.3,41l-.15.15.65.65.06-.06.06-.06A1.53,1.53,0,0,1,33,41.25Zm8.64.94ZM29.37,37.38Zm1.43-5.32Zm11.47-.7Zm-6.2-2.55Zm.46,11.65h0a4,4,0,0,1,0-8h0a4,4,0,0,1,4,4,3.94,3.94,0,0,1-1.17,2.84A4,4,0,0,1,36.53,40.46Zm0-6.69a2.68,2.68,0,0,0,0,5.36h0a2.68,2.68,0,1,0,0-5.36Z"/><path class="cls-1" d="M42.08,52.2H10.3A10.24,10.24,0,0,1,.07,42V10.19A10.24,10.24,0,0,1,10.3,0H42.08A10.24,10.24,0,0,1,52.31,10.19V42A10.24,10.24,0,0,1,42.08,52.2ZM10.3,1.56a8.64,8.64,0,0,0-8.63,8.63V42A8.64,8.64,0,0,0,10.3,50.6H42.08A8.64,8.64,0,0,0,50.71,42V10.19a8.64,8.64,0,0,0-8.63-8.63Z"/><rect class="cls-1" x="7.16" y="7" width="37.33" height="1.6"/><rect class="cls-1" x="7.16" y="13.92" width="37.33" height="1.6"/><rect class="cls-1" x="7.16" y="20.85" width="24.73" height="1.6"/><rect class="cls-1" x="7.16" y="27.77" width="17.29" height="1.6"/></svg>