<svg id="Layer_1" data-name="Layer 1" xmlns="http://www.w3.org/2000/svg" viewBox="0 0 48 52.82"><defs><style>.cls-1{fill:#004fff;}</style></defs><title>bw-icons-separated</title><path class="cls-1" d="M24.11,32.11a7.31,7.31,0,1,1,7.31-7.31A7.31,7.31,0,0,1,24.11,32.11Zm0-13a5.71,5.71,0,1,0,5.71,5.7A5.71,5.71,0,0,0,24.11,19.1Z"/><path class="cls-1" d="M18,23.46a.65.65,0,0,1-.27-.05L5.18,19.05a.8.8,0,0,1,.52-1.51l12.53,4.37a.78.78,0,0,1,.49,1A.79.79,0,0,1,18,23.46Z"/><path class="cls-1" d="M14.78,43.13a.75.75,0,0,1-.38-.1A.79.79,0,0,1,14.07,42l6.28-11.78a.8.8,0,0,1,1.41.75L15.48,42.7A.8.8,0,0,1,14.78,43.13Z"/><path class="cls-1" d="M30.11,23.06a.8.8,0,0,1-.74-.48.81.81,0,0,1,.42-1l11.87-5A.8.8,0,0,1,42.28,18L30.42,23A.85.85,0,0,1,30.11,23.06Z"/><path class="cls-1" d="M24.11,19.1a.8.8,0,0,1-.8-.8V5.91a.8.8,0,0,1,1.6,0V18.3A.8.8,0,0,1,24.11,19.1Z"/><path class="cls-1" d="M20.36,20.29A.81.81,0,0,1,19.7,20L9.46,5.47a.8.8,0,0,1,1.3-.92L21,19a.8.8,0,0,1-.19,1.11A.81.81,0,0,1,20.36,20.29Z"/><path class="cls-1" d="M27.54,20.07a.81.81,0,0,1-.42-.12.8.8,0,0,1-.26-1.1l9.93-16a.81.81,0,0,1,1.11-.26.79.79,0,0,1,.25,1.1l-9.93,16A.78.78,0,0,1,27.54,20.07Z"/><path class="cls-1" d="M45.39,29.63l-.15,0L30.36,26.8a.81.81,0,0,1-.64-.94.8.8,0,0,1,.93-.63L45.54,28a.8.8,0,0,1-.15,1.59Z"/><path class="cls-1" d="M28,50.68a.8.8,0,0,1-.79-.68L24.32,31.35a.79.79,0,0,1,.67-.91.78.78,0,0,1,.91.66l2.91,18.66a.79.79,0,0,1-.67.91Z"/><path class="cls-1" d="M2.87,35a.8.8,0,0,1-.32-1.53L17.84,26.7a.8.8,0,1,1,.64,1.46L3.19,34.9A.71.71,0,0,1,2.87,35Z"/><g id="af56hZ"><path class="cls-1" d="M30.63,24.83a6.51,6.51,0,1,1-6.46-6.53A6.52,6.52,0,0,1,30.63,24.83Zm-11.71,0a5.21,5.21,0,1,0,5.21-5.21A5.23,5.23,0,0,0,18.92,24.81Z"/><path class="cls-1" d="M28.87,30.43l.8-.91c1.54,1.32,3.06,2.61,4.55,3.93a1,1,0,0,1,.05,1.5,1,1,0,0,1-1.55-.06c-1-1.14-2-2.29-3-3.44Z"/><path class="cls-1" d="M28.15,24.75l-.34.43c-.14-.2-.4-.38-.42-.59a3.33,3.33,0,0,0-3.09-3.05c-.2,0-.37-.26-.55-.39.21-.13.42-.36.63-.36A4.09,4.09,0,0,1,28.15,24.75Z"/></g><circle class="cls-1" cx="24.11" cy="5.91" r="2.28"/><circle class="cls-1" cx="41.97" cy="17.24" r="4"/><circle class="cls-1" cx="14.78" cy="42.33" r="3.3"/><circle class="cls-1" cx="5.44" cy="18.3" r="3.56"/><circle class="cls-1" cx="2.87" cy="34.17" r="2.87"/><circle class="cls-1" cx="10.11" cy="5.01" r="3.8"/><circle class="cls-1" cx="28.02" cy="49.88" r="2.61"/><circle class="cls-1" cx="45.39" cy="28.83" r="2.61"/><circle class="cls-1" cx="37.47" cy="3.25" r="3.25"/></svg>