<svg id="Layer_1" data-name="Layer 1" xmlns="http://www.w3.org/2000/svg" viewBox="0 0 56.01 53.16"><defs><style>.cls-1{fill:#004fff;}</style></defs><title>bw-icons-separated</title><path class="cls-1" d="M19.46,13.41l7.43,3.15L23.74,24l-7.43-3.15Z"/><path class="cls-1" d="M24.75,23.66l2.54-6,6,2.54-2.54,6Z"/><path class="cls-1" d="M26.65,27Q25,30.53,23.43,34.07c-.13.28-.25.55-.37.83-.34.75-.34.75-1.27.58l3.86-9L24,25.77l.53-1.25L30.35,27l-.52,1.25-1.21-.46,3.07,7.78c-1,.13-1,.13-1.28-.67-1-2.44-2.05-4.89-3.09-7.33a3.69,3.69,0,0,0-.48-.66Z"/><path class="cls-1" d="M33.72,21.15l4.72,2-2,4.72-4.72-2Z"/><polygon class="cls-1" points="11.18 18.56 10.39 18.48 11.85 3.8 12.64 3.87 11.18 18.56"/><polygon class="cls-1" points="26.73 8.26 12.14 4.22 12.35 3.45 26.95 7.49 26.73 8.26"/><polygon class="cls-1" points="26.97 8.25 26.7 7.5 40.98 2.42 41.25 3.17 26.97 8.25"/><polygon class="cls-1" points="41.79 17.65 40.72 2.82 41.52 2.76 42.59 17.59 41.79 17.65"/><rect class="cls-1" x="47.58" y="14.79" width="0.8" height="14.68" transform="translate(1.03 46.37) rotate(-52.06)"/><polygon class="cls-1" points="32.94 51.1 32.22 50.74 39.5 36 40.22 36.36 32.94 51.1"/><rect class="cls-1" x="38.38" y="31.01" width="16.86" height="0.8" transform="translate(-9.56 31.95) rotate(-34.4)"/><rect class="cls-1" x="25.41" y="35.92" width="0.8" height="18.26" transform="translate(-25.3 35.86) rotate(-50)"/><rect class="cls-1" x="-2.5" y="26.25" width="18.25" height="0.8" transform="translate(-20.11 20.38) rotate(-62.84)"/><rect class="cls-1" x="10.24" y="28.51" width="0.8" height="16.93" transform="translate(-27.83 37.6) rotate(-74.88)"/><circle class="cls-1" cx="26.84" cy="7.87" r="1.96"/><circle class="cls-1" cx="42.19" cy="17.62" r="3.44"/><circle class="cls-1" cx="18.81" cy="39.19" r="2.84"/><circle class="cls-1" cx="10.79" cy="18.52" r="3.06"/><circle class="cls-1" cx="2.47" cy="34.77" r="2.47"/><circle class="cls-1" cx="12.24" cy="3.84" r="3.27"/><circle class="cls-1" cx="39.86" cy="36.18" r="3.27"/><circle class="cls-1" cx="32.58" cy="50.92" r="2.24"/><circle class="cls-1" cx="53.77" cy="26.65" r="2.24"/><circle class="cls-1" cx="41.12" cy="2.79" r="2.79"/></svg>