<svg id="Layer_1" data-name="Layer 1" xmlns="http://www.w3.org/2000/svg" viewBox="0 0 44.31 35.42"><defs><style>.cls-1{fill:#004fff;}</style></defs><title>bw-icons-separated</title><polygon class="cls-1" points="21.87 23.57 8.46 23.57 8.46 21.4 2.1 25.74 8.46 30.09 8.46 27.92 21.87 27.92 21.87 23.57"/><path class="cls-1" d="M9.64,19.28a9.64,9.64,0,1,1,9.64-9.64A9.65,9.65,0,0,1,9.64,19.28Zm0-17.68a8,8,0,1,0,8,8A8.05,8.05,0,0,0,9.64,1.6Z"/><path class="cls-1" d="M9.64,16.69a7.05,7.05,0,1,1,7.05-7A7.05,7.05,0,0,1,9.64,16.69Zm0-12.5a5.45,5.45,0,1,0,5.45,5.45A5.45,5.45,0,0,0,9.64,4.19Z"/><path class="cls-1" d="M34.67,35.42a9.64,9.64,0,1,1,9.64-9.64A9.65,9.65,0,0,1,34.67,35.42Zm0-17.68a8,8,0,1,0,8,8A8,8,0,0,0,34.67,17.74Z"/><path class="cls-1" d="M34.67,32.83a7,7,0,1,1,7-7A7.05,7.05,0,0,1,34.67,32.83Zm0-12.5a5.45,5.45,0,1,0,5.45,5.45A5.45,5.45,0,0,0,34.67,20.33Z"/><polygon class="cls-1" points="42.06 9.35 35.7 5 35.7 7.17 22.29 7.17 22.29 11.52 35.7 11.52 35.7 13.69 42.06 9.35"/></svg>