<svg id="Layer_1" data-name="Layer 1" xmlns="http://www.w3.org/2000/svg" viewBox="0 0 58.88 58.88"><defs><style>.cls-1{fill:#004fff;}</style></defs><title>bw-icons-separated</title><path class="cls-1" d="M29.44,58.88A29.44,29.44,0,1,1,58.88,29.44,29.47,29.47,0,0,1,29.44,58.88Zm0-57.28A27.85,27.85,0,1,0,57.29,29.44,27.87,27.87,0,0,0,29.44,1.6Z"/><path class="cls-1" d="M29.44,54.11A24.67,24.67,0,1,1,54.11,29.44,24.7,24.7,0,0,1,29.44,54.11Zm0-48A23.33,23.33,0,1,0,52.77,29.44,23.36,23.36,0,0,0,29.44,6.11Z"/><path class="cls-1" d="M29.44,42A12.52,12.52,0,1,1,42,29.44,12.53,12.53,0,0,1,29.44,42Zm0-23.44A10.92,10.92,0,1,0,40.36,29.44,10.93,10.93,0,0,0,29.44,18.52Z"/><rect class="cls-1" x="28.64" y="17.72" width="1.6" height="23.44"/><rect class="cls-1" x="17.72" y="28.64" width="23.44" height="1.6"/><path class="cls-1" d="M29.44,42V40.37c3.37,0,6.22-5,6.22-10.93s-2.85-10.92-6.22-10.92v-1.6c4.38,0,7.82,5.5,7.82,12.52S33.82,42,29.44,42Z"/><path class="cls-1" d="M29.44,42c-4.38,0-7.81-5.5-7.81-12.52s3.43-12.52,7.81-12.52v1.6c-3.37,0-6.21,5-6.21,10.92s2.84,10.93,6.21,10.93Z"/></svg>