<svg id="Layer_1" data-name="Layer 1" xmlns="http://www.w3.org/2000/svg" viewBox="0 0 53.62 45.01"><defs><style>.cls-1{fill:#004fff;}</style></defs><title>bw-icons-separated</title><path class="cls-1" d="M50.1,45H3.52A3.56,3.56,0,0,1,0,41.49v-38A3.56,3.56,0,0,1,3.52,0H50.1a3.56,3.56,0,0,1,3.52,3.52v37.9A3.63,3.63,0,0,1,50.1,45ZM3.52,1.6A2,2,0,0,0,1.6,3.52v38a2,2,0,0,0,1.92,1.92H50.1a2,2,0,0,0,1.92-2V3.52A2,2,0,0,0,50.1,1.6Z"/><path class="cls-1" d="M50.1,7.12H3.52A3.56,3.56,0,0,1,3.52,0H50.1a3.56,3.56,0,0,1,3.52,3.52H52A2,2,0,0,0,50.1,1.6H3.52a2,2,0,0,0-1.92,2A2,2,0,0,0,3.52,5.52H50.1Z"/><path class="cls-1" d="M53.62,9H52A2,2,0,0,0,50.1,7.12V5.52A3.56,3.56,0,0,1,53.62,9Z"/><path class="cls-1" d="M26.81,36.9a12,12,0,1,1,12-12A12,12,0,0,1,26.81,36.9Zm0-23.15A11.18,11.18,0,1,0,38,24.93,11.18,11.18,0,0,0,26.81,13.75Z"/><path class="cls-1" d="M26.81,35.14A10.21,10.21,0,1,1,37,24.93,10.22,10.22,0,0,1,26.81,35.14Zm0-19.63a9.42,9.42,0,1,0,9.41,9.42A9.43,9.43,0,0,0,26.81,15.51Z"/><path class="cls-1" d="M26.81,30.06a5.14,5.14,0,1,1,5.13-5.13A5.14,5.14,0,0,1,26.81,30.06Zm0-9.47a4.34,4.34,0,1,0,4.34,4.34A4.34,4.34,0,0,0,26.81,20.59Z"/><rect class="cls-1" x="26.41" y="20.19" width="0.8" height="9.47"/><rect class="cls-1" x="22.07" y="24.53" width="9.47" height="0.8"/><path class="cls-1" d="M26.81,30.06v-.8c1.32,0,2.43-2,2.43-4.33s-1.11-4.34-2.43-4.34v-.8c1.81,0,3.23,2.26,3.23,5.14S28.62,30.06,26.81,30.06Z"/><path class="cls-1" d="M26.81,30.06c-1.81,0-3.23-2.26-3.23-5.13s1.42-5.14,3.23-5.14v.8c-1.32,0-2.43,2-2.43,4.34s1.11,4.33,2.43,4.33Z"/></svg>